<svg width="22" height="22" viewBox="0 0 22 22" fill="none" xmlns="http://www.w3.org/2000/svg">
<g clip-path="url(#clip0_2018_104)">
<path d="M22 11C22 9.65451 21.758 8.36557 21.3158 7.17396L11 6.69568L0.684191 7.17392C0.242043 8.36557 0 9.65451 0 11C0 12.3456 0.242043 13.6345 0.684191 14.8261L11 15.3044L21.3158 14.8261C21.758 13.6345 22 12.3456 22 11Z" fill="#0052B4"/>
<path d="M11 22C15.7296 22 19.7616 19.0149 21.3158 14.826H0.684204C2.23843 19.0149 6.2704 22 11 22Z" fill="#FF9811"/>
<path d="M0.684204 7.17393H21.3159C19.7616 2.98513 15.7296 0 11 0C6.2704 0 2.23843 2.98513 0.684204 7.17393Z" fill="#D80027"/>
</g>
<defs>
<clipPath id="clip0_2018_104">
<rect width="22" height="22" fill="white"/>
</clipPath>
</defs>
</svg>
