<svg width="42" height="33" viewBox="0 0 42 33" fill="none" xmlns="http://www.w3.org/2000/svg">
<path d="M20.7624 0.315918C23.097 0.315918 24.9895 2.3267 24.9895 4.80712C24.9895 7.28754 23.097 9.2984 20.7624 9.2984C18.4277 9.2984 16.5352 7.28754 16.5352 4.80712C16.5352 2.3267 18.4277 0.315918 20.7624 0.315918ZM16.5351 14.9546C15.9715 15.2539 15.0424 17.8597 15.5519 18.2107L12.8078 17.6744C14.6746 16.9559 15.0486 15.7554 15.2001 13.5652L15.0563 12.2033C15.6694 11.6612 16.5762 10.4634 17.3805 10.4635H24.1441C24.9661 10.4634 25.6883 10.8349 26.3105 11.3974L26.7068 12.9476C26.7068 14.7779 28.0191 15.3282 29.3906 16.2147L27.473 16.1721C26.9745 16.1532 26.5128 16.2724 26.0877 16.4893C25.7276 15.8319 25.2825 15.1102 24.9895 14.9546L25.0847 17.2283C23.2952 18.9744 22.4003 22.2678 22.4003 22.2678L22.0911 23.8993L21.185 23.937C20.577 23.937 19.98 23.8864 19.3976 23.7892C18.9341 22.4808 17.9235 20.119 16.366 19.0173L16.5351 14.9546ZM10.2471 8.69487C12.5818 8.69487 14.4744 10.7056 14.4744 13.1861C14.4744 15.6665 12.5818 17.6773 10.2471 17.6773C7.91251 17.6773 6.01993 15.6665 6.01993 13.1861C6.01993 10.7056 7.91251 8.69487 10.2471 8.69487ZM6.01993 23.3334C5.45631 23.6329 4.32907 26.0282 4.32907 26.0282C4.32907 26.0282 3.76545 26.9264 3.4836 30.5194L0.947266 29.6212L1.79274 25.13C1.79274 25.13 3.4836 18.8422 6.86532 18.8423H13.6288C17.0107 18.8422 18.7016 25.13 18.7016 25.13L19.547 29.6212L17.0107 30.5195C16.7289 26.9264 16.1653 26.0282 16.1653 26.0282C16.1653 26.0282 15.038 23.6329 14.4744 23.3334L14.8159 31.491C13.5308 32.0236 12.1325 32.3159 10.6699 32.3159C8.88701 32.3159 7.19964 31.8816 5.69639 31.1072L6.01993 23.3334ZM31.6474 6.99465C33.982 7.08299 35.8747 9.16535 35.8747 11.6458C35.8747 14.1262 33.982 16.0654 31.6474 15.9771C29.3128 15.8888 27.4202 13.8064 27.4202 11.326C27.4202 8.8456 29.3128 6.9064 31.6474 6.99465ZM27.4202 21.4734C26.8566 21.7515 25.7294 24.1041 25.7294 24.1041C25.7294 24.1041 25.1657 24.981 24.8839 28.5633L22.3476 27.5691L23.193 23.1099C23.193 23.1099 24.8839 16.8862 28.2656 17.0142L35.0291 17.27C38.411 17.3979 40.1019 23.7495 40.1019 23.7495L40.9473 28.2728L38.411 29.0751C38.1292 25.4715 37.5656 24.5519 37.5656 24.5519C37.5656 24.5519 36.4383 22.1139 35.8747 21.7931L36.2162 29.9637C34.9311 30.4476 33.5328 30.687 32.0702 30.6317C30.2873 30.5643 28.5999 30.0662 27.0967 29.2348L27.4202 21.4734Z" fill="black" stroke="#E2BE08" stroke-width="0.168421" stroke-linejoin="round"/>
</svg>
