<svg width="42" height="40" viewBox="0 0 42 40" fill="none" xmlns="http://www.w3.org/2000/svg">
<path d="M21.2116 -0.0942383L16.6804 9.23002L6.54781 10.725L13.8797 17.9829L12.1489 28.231L21.2116 23.3925L30.2744 28.231L28.5436 17.9829L35.8754 10.7251L25.7431 9.23011L21.2116 -0.0942383ZM8.02278 24.8911L5.59072 29.8958L0.152344 30.6981L4.08756 34.5937L3.15865 40.094L8.02278 37.4971L12.8869 40.0939L11.958 34.5936L15.8932 30.6981L10.4549 29.8958L8.02278 24.8911ZM34.2819 24.8911L31.8498 29.8958L26.4115 30.6981L30.3467 34.5937L29.4178 40.094L34.2819 37.4971L39.146 40.0939L38.2171 34.5936L42.1523 30.6981L36.714 29.8958L34.2819 24.8911Z" fill="black" stroke="#E2BE08" stroke-width="0.125"/>
</svg>
