<svg width="132" height="53" viewBox="0 0 132 53" fill="none" xmlns="http://www.w3.org/2000/svg">
<path d="M52.148 30.18C53.548 30.18 54.6587 29.6107 55.48 28.472C56.3013 27.3333 56.8333 25.952 57.076 24.328H58.812C58.5507 26.344 57.888 28.0613 56.824 29.48C56.2267 30.264 55.5453 30.852 54.78 31.244C54.0333 31.6173 53.2027 31.86 52.288 31.972C51.392 32.084 50.216 32.14 48.76 32.14C46.7067 32.14 45.036 31.944 43.748 31.552C42.4787 31.1413 41.3867 30.4787 40.472 29.564C38.68 27.772 37.784 25.308 37.784 22.172C37.784 18.868 38.5867 16.4133 40.192 14.808C41.2373 13.7627 42.404 13.072 43.692 12.736C44.98 12.4 46.6693 12.232 48.76 12.232C50.6827 12.232 52.2413 12.372 53.436 12.652C54.6493 12.9133 55.6387 13.4827 56.404 14.36C57.0387 15.088 57.5333 15.9653 57.888 16.992C58.2427 18.0187 58.448 19.036 58.504 20.044H56.908C56.8333 19.204 56.628 18.3453 56.292 17.468C55.9747 16.572 55.4707 15.8067 54.78 15.172C54.0893 14.5187 53.212 14.192 52.148 14.192C51.14 14.192 50.328 14.6307 49.712 15.508C49.1707 16.1987 48.76 17.216 48.48 18.56C48.2747 19.5867 48.172 20.7907 48.172 22.172C48.172 24.356 48.4333 26.12 48.956 27.464C49.628 29.2747 50.692 30.18 52.148 30.18ZM65.2944 12.4H73.4704L82.1504 32H71.5664L68.6264 25.504H62.4664L59.9464 32H57.9024L65.2944 12.4ZM67.8424 23.796L65.2944 18.112L63.0824 23.796H67.8424ZM83.2567 12.4H93.0847V32H83.2567V12.4ZM93.0847 22.172L97.6767 12.4H107.449L102.549 22.172L108.765 32H98.8807L93.0847 22.172ZM109.835 12.4H130.191V14.052H119.691V21.304H124.843V22.984H119.691V30.32H130.191V32H109.835V12.4Z" fill="#FFDCD1"/>
<path d="M39.436 39.952V53H37.784V33.4H45.96L50.048 41.576L53.296 33.4H62.256V53H53.296V38.3L47.584 53H45.148L39.436 39.952ZM71.2718 33.4H79.4478L88.1278 53H77.5438L74.6038 46.504H68.4438L65.9238 53H63.8798L71.2718 33.4ZM73.8198 44.796L71.2718 39.112L69.0598 44.796H73.8198ZM90.9223 35.052H83.5583V33.4H108.114V35.052H100.722V53H90.9223V35.052ZM110.185 33.4H130.541V35.052H120.041V42.304H125.193V43.984H120.041V51.32H130.541V53H110.185V33.4Z" fill="#FF8886"/>
<path d="M16.9992 20.9872C17.1667 20.9872 17.3343 20.9224 17.4618 20.7935L21.4151 16.7959C22.565 15.6331 22.422 13.6443 21.2149 12.6367C20.0085 11.6283 18.4099 11.8916 17.4029 12.9088L17 13.3153L16.5971 12.9088C15.5705 11.8716 13.904 11.7019 12.7851 12.6367C11.5012 13.7083 11.4341 15.6347 12.5825 16.7959L16.5366 20.7935C16.5964 20.8546 16.6682 20.9033 16.7477 20.9366C16.8272 20.9698 16.9127 20.9871 16.9992 20.9872ZM34 53H0V44.4278C0.791154 45.565 1.68856 47.2377 3.92308 47.2377C7.30591 47.2377 7.62385 43.3962 9.15385 43.3962C10.6937 43.3962 10.9879 47.2377 14.3846 47.2377C17.7634 47.2377 18.0887 43.3962 19.6154 43.3962C21.1478 43.3962 21.4592 47.2377 24.8462 47.2377C28.2274 47.2377 28.5437 43.3962 30.0769 43.3962C31.3846 43.3962 31.8072 46.1893 34 47.012V53ZM0 41.0608V40.1949C0 38.7863 1.17692 37.6339 2.61538 37.6339H31.3846C32.8231 37.6339 34 38.7863 34 40.1949V43.6515C33.208 42.5134 32.3172 40.8351 30.0769 40.8351C26.6884 40.8351 26.386 44.6767 24.8462 44.6767C23.3162 44.6767 23.0023 40.8351 19.6154 40.8351C16.2236 40.8351 15.9212 44.6767 14.3846 44.6767C12.8571 44.6767 12.5342 40.8351 9.15385 40.8351C5.77346 40.8351 5.44981 44.6767 3.92308 44.6767C2.61457 44.6767 2.19692 41.8828 0 41.0608ZM28.7692 35.0728H5.23077V28.4206C6.02356 29.5586 6.9226 31.2313 9.15385 31.2313C12.5342 31.2313 12.8571 27.3898 14.3846 27.3898C15.9212 27.3898 16.2236 31.2313 19.6154 31.2313C23.0023 31.2313 23.3162 27.3898 24.8462 27.3898C26.1596 27.3898 26.5731 30.1845 28.7692 31.0064V35.0728ZM5.23077 25.0544V24.5846C5.23077 23.3105 6.29572 22.2677 7.59687 22.2677H26.4031C27.7043 22.2677 28.7692 23.3105 28.7692 24.5846V27.6435C27.9764 26.5062 27.0799 24.8287 24.8462 24.8287C21.4592 24.8287 21.1478 28.6703 19.6154 28.6703C18.0887 28.6703 17.7634 24.8287 14.3846 24.8287C10.9879 24.8287 10.6937 28.6703 9.15385 28.6703C7.84942 28.6703 7.42606 25.8764 5.23077 25.0544Z" fill="url(#paint0_linear_0_14)"/>
<defs>
<linearGradient id="paint0_linear_0_14" x1="17.1731" y1="18.306" x2="39.2972" y2="50.0651" gradientUnits="userSpaceOnUse">
<stop stop-color="#C96161"/>
<stop offset="0.463978" stop-color="#FFF0C2"/>
<stop offset="1" stop-color="#FF8886"/>
</linearGradient>
</defs>
</svg>
