<svg xmlns="http://www.w3.org/2000/svg" width="30" height="30" viewBox="0 0 30 30" fill="none">
    <g clip-path="url(#clip0_129_42)">
        <path fill-rule="evenodd" clip-rule="evenodd" d="M15 0C23.2846 0 30 6.71543 30 15C30 23.2846 23.2846 30 15 30C6.71543 30 0 23.2846 0 15C0 6.71543 6.71543 0 15 0Z" fill="url(#paint0_linear_129_42)"/>
        <path fill-rule="evenodd" clip-rule="evenodd" d="M12.842 23.0947C12.842 23.2102 12.9358 23.3039 13.0512 23.3039H16.0336C16.149 23.3039 16.2422 23.2102 16.2422 23.0947V14.9344H18.4043C18.5127 14.9344 18.6035 14.8512 18.6123 14.7428L18.8203 12.2842C18.8228 12.2554 18.8193 12.2263 18.81 12.1989C18.8007 12.1715 18.7857 12.1464 18.7662 12.1251C18.7466 12.1037 18.7229 12.0867 18.6964 12.0751C18.6699 12.0634 18.6413 12.0574 18.6123 12.0574H16.2422V10.3131C16.2422 9.9041 16.5739 9.57305 16.9828 9.57305H18.6487C18.7647 9.57305 18.8578 9.4793 18.8578 9.36387V6.90469C18.8578 6.78926 18.7647 6.69551 18.6487 6.69551H15.8338C14.1815 6.69551 12.842 8.03496 12.842 9.68672V12.0574H11.3514C11.236 12.0574 11.1422 12.1512 11.1422 12.2666V14.7252C11.1422 14.8412 11.236 14.9344 11.3514 14.9344H12.842V23.0947Z" fill="white"/>
    </g>
    <defs>
        <linearGradient id="paint0_linear_129_42" x1="3.97441" y1="4.8293" x2="27.7846" y2="22.8504" gradientUnits="userSpaceOnUse">
            <stop stop-color="#3B5F9E"/>
            <stop offset="1" stop-color="#178CC8"/>
        </linearGradient>
        <clipPath id="clip0_129_42">
            <rect width="30" height="30" fill="white"/>
        </clipPath>
    </defs>
</svg>