<svg xmlns="http://www.w3.org/2000/svg" width="30" height="30" viewBox="0 0 30 30" fill="none">
    <g clip-path="url(#clip0_130_51)">
        <path fill-rule="evenodd" clip-rule="evenodd" d="M15 0C23.2846 0 30 6.71543 30 15C30 23.2846 23.2846 30 15 30C6.71543 30 0 23.2846 0 15C0 6.71543 6.71543 0 15 0Z" fill="url(#paint0_linear_130_51)"/>
        <path d="M21.7511 9.58066L19.6154 20.3473C19.6154 20.3473 19.3165 21.0937 18.4956 20.7357L13.5679 16.9576L11.7755 16.0916L8.75912 15.0762C8.75912 15.0762 8.29623 14.9115 8.2517 14.5535C8.20658 14.1949 8.77435 14.001 8.77435 14.001L20.7656 9.29707C20.7656 9.29707 21.7511 8.86406 21.7511 9.58066Z" fill="#FEFEFE"/>
        <path d="M15.4921 18.6656L13.3939 20.5787C13.3939 20.5787 13.2304 20.7029 13.0505 20.625C12.7863 20.5869 12.0111 17.8236 11.53 16.1748L11.9326 15.9187L15.4921 18.6656Z" fill="#B5D2E5"/>
        <path d="M13.0505 20.625C12.7646 20.598 11.6771 16.6564 11.53 16.1748L19.3248 11.2242C19.7302 10.9781 19.947 11.1721 19.5978 11.4979C19.357 11.7229 13.4748 17.0104 13.4748 17.0104L13.0505 20.625Z" fill="#D3E7F2"/>
    </g>
    <defs>
        <linearGradient id="paint0_linear_130_51" x1="3.97441" y1="4.8293" x2="27.7846" y2="22.8504" gradientUnits="userSpaceOnUse">
            <stop stop-color="#28AAE0"/>
            <stop offset="1" stop-color="#23B7EC"/>
        </linearGradient>
        <clipPath id="clip0_130_51">
            <rect width="30" height="30" fill="white"/>
        </clipPath>
    </defs>
</svg>